<svg xmlns="http://www.w3.org/2000/svg" aria-hidden="true" style="position:absolute;width:0;height:0;overflow:hidden">
    <defs>
        <symbol id="icon-Damien" viewBox="0 0 159 32">
            <path
                d="M133.874 31.984V.134h4.69l15.684 23.667V.134h4.689v31.85h-4.689L138.564 8.295v23.689h-4.69zM108.211 31.984V.134h20.351v4.357h-15.728v8.936h13.073v4.357h-13.073v9.843h15.728v4.357h-20.351zM96.945 31.984V.134h4.623v31.85h-4.623zM58.871 31.984V.134h4.181l11.547 23.954L86.08.134h4.225v31.828h-4.38V10.175L75.639 31.984h-2.101L63.23 10.175v21.809h-4.358zM27.54 31.984 37.892.134h6.658l10.352 31.85h-4.8L40.568 2.92h1.195L32.34 31.984h-4.8zm5.375-7.188v-4.335H49.55v4.335H32.915zM.071 31.984V.134h9.976c.295 0 .841.007 1.637.022.811.015 1.585.074 2.323.177 2.492.31 4.586 1.202 6.282 2.676C22 4.484 23.29 6.356 24.16 8.627c.87 2.256 1.305 4.733 1.305 7.432 0 2.713-.435 5.205-1.305 7.476-.87 2.256-2.16 4.121-3.871 5.596-1.696 1.46-3.79 2.345-6.282 2.654-.737.103-1.512.162-2.323.177-.796.015-1.342.022-1.637.022H.071zm4.734-4.402h5.243c.501 0 1.099-.015 1.792-.044s1.305-.089 1.836-.177c1.622-.31 2.935-1.01 3.937-2.101 1.018-1.106 1.762-2.462 2.234-4.07s.708-3.318.708-5.131c0-1.873-.243-3.605-.73-5.198-.487-1.607-1.239-2.949-2.256-4.026-1.003-1.091-2.301-1.784-3.893-2.079a11.093 11.093 0 0 0-1.858-.177 43.442 43.442 0 0 0-1.77-.044H4.805v23.047z" />
        </symbol>
        <symbol id="icon-left" viewBox="0 0 26 32">
            <path
                d="M0 19.2v-6.4h17.6a3.2 3.2 0 0 0 0-6.4H0V0h16c8.836 0 16 7.163 16 16s-7.164 16-16 16H0v-6.4h17.6a3.2 3.2 0 0 0 0-6.4H0z" />
        </symbol>
        <symbol id="icon-right" viewBox="0 0 26 32">
            <path
                d="M25.92 19.2v-6.4H8.32a3.2 3.2 0 0 1 0-6.4h17.6V0h-16c-8.836 0-16 7.163-16 16s7.164 16 16 16h16v-6.4H8.32a3.2 3.2 0 0 1 0-6.4h17.6z" />
        </symbol>
        <symbol id="icon-Vector-431-Stroke" viewBox="0 0 34 32">
            <path fill="#fff"
                d="M9.619.286h21.429a1.427 1.427 0 0 1 1.428 1.428v21.429a1.43 1.43 0 0 1-2.858 0V5.163L3.485 31.296a1.428 1.428 0 1 1-2.02-2.02L27.598 3.143H9.618a1.43 1.43 0 0 1 0-2.858z"
                style="fill:var(--color1, #fff)" />
        </symbol>
        <symbol id="icon-Vector" viewBox="0 0 32 32">
            <path fill="#afa1f7"
                d="M30.231 16A6.7 6.7 0 0 0 32 15.764a6.693 6.693 0 0 0-1.389-.144h-7.914a6.673 6.673 0 0 1-3.558-1.022 6.665 6.665 0 0 1 1.865-3.602l5.058-5.058a6.727 6.727 0 0 0 1.084-1.418c-.384.25-.748.543-1.084.88l-5.596 5.596a6.67 6.67 0 0 1-3.238 1.793A6.67 6.67 0 0 1 16 8.923V1.77c0-.613-.082-1.206-.236-1.77a6.693 6.693 0 0 0-.144 1.389v7.914a6.673 6.673 0 0 1-1.022 3.558 6.665 6.665 0 0 1-3.602-1.865L5.938 5.938A6.693 6.693 0 0 0 4.52 4.854c.25.384.543.747.88 1.084l5.596 5.596a6.67 6.67 0 0 1 1.793 3.238A6.67 6.67 0 0 1 8.923 16H1.77c-.613 0-1.206.082-1.77.236.448.094.913.144 1.389.144h7.914c1.307 0 2.527.375 3.558 1.022a6.668 6.668 0 0 1-1.865 3.602l-5.058 5.058a6.693 6.693 0 0 0-1.084 1.418c.384-.25.747-.544 1.084-.88l5.596-5.596a6.67 6.67 0 0 1 3.238-1.793A6.67 6.67 0 0 1 16 23.077v7.153a6.7 6.7 0 0 0 .236 1.769c.094-.448.144-.913.144-1.389v-7.914c0-1.307.375-2.527 1.022-3.558a6.668 6.668 0 0 1 3.602 1.865l5.058 5.058c.433.433.911.794 1.418 1.084a6.715 6.715 0 0 0-.88-1.084l-5.596-5.596a6.67 6.67 0 0 1-1.793-3.238 6.67 6.67 0 0 1 3.866-1.228h7.153z"
                style="fill:var(--color2, #afa1f7)" />
        </symbol>
        <symbol id="icon-arrow_btm" viewBox="0 0 53 32">
            <path fill="none" stroke="#cacace" stroke-width="7.111" d="M48 3.556 26.667 24.889 5.334 3.556"
                style="stroke:var(--color1, #cacace)" />
        </symbol>
        <symbol id="icon-arrow_left" viewBox="0 0 19 32">
            <path fill="none" stroke="#fff" stroke-linecap="round" stroke-linejoin="round" stroke-width="3.2"
                d="M16.4 2.4 2.8 16l13.6 13.6" style="stroke:var(--color2, #fff)" />
        </symbol>
        <symbol id="icon-arrow_right" viewBox="0 0 19 32">
            <path fill="none" stroke="#fff" stroke-linecap="round" stroke-linejoin="round" stroke-width="3.2"
                d="M2.8 2.4 16.4 16 2.8 29.6" style="stroke:var(--color2, #fff)" />
        </symbol>
        <symbol id="icon-arrow_top" viewBox="0 0 53 32">
            <path fill="none" stroke="#fff" stroke-width="7.111" d="M48 28.444 26.667 7.111 5.334 28.444"
                style="stroke:var(--color2, #fff)" />
        </symbol>
        <symbol id="icon-soc_fb" viewBox="0 0 34 32">
            <path fill="#fff"
                d="M33.069 16c0-8.837-7.164-16-16-16s-16 7.163-16 16c0 7.986 5.851 14.605 13.5 15.806V20.625h-4.063V16h4.063v-3.525c0-4.01 2.389-6.225 6.043-6.225 1.75 0 3.582.313 3.582.313v3.938h-2.017c-1.988 0-2.608 1.233-2.608 2.5v3h4.437l-.709 4.625h-3.728v11.181c7.649-1.2 13.5-7.82 13.5-15.806z"
                style="fill:var(--color2, #fff)" />
        </symbol>
        <symbol id="icon-soc_ld" viewBox="0 0 34 32">
            <path fill="#fff"
                d="M30.7 0H3.431C2.125 0 1.069 1.031 1.069 2.306v27.381c0 1.275 1.056 2.312 2.362 2.312H30.7c1.306 0 2.369-1.037 2.369-2.306V2.306C33.069 1.031 32.006 0 30.7 0zM10.563 27.269h-4.75V11.994h4.75v15.275zM8.188 9.912a2.751 2.751 0 1 1 0-5.5 2.75 2.75 0 1 1 0 5.5zm20.149 17.357h-4.744v-7.425c0-1.769-.031-4.05-2.469-4.05-2.469 0-2.844 1.931-2.844 3.925v7.55h-4.738V11.994h4.55v2.088h.063c.631-1.2 2.181-2.469 4.487-2.469 4.806 0 5.694 3.162 5.694 7.275v8.381z"
                style="fill:var(--color2, #fff)" />
        </symbol>
        <symbol id="icon-soc_tw" viewBox="0 0 37 32">
            <path fill="#fff"
                d="M12.373 30.445c13.414 0 20.753-11.116 20.753-20.753 0-.313-.007-.632-.021-.944a14.792 14.792 0 0 0 3.638-3.776c-1.33.592-2.741.978-4.187 1.146a7.335 7.335 0 0 0 3.208-4.034 14.656 14.656 0 0 1-4.631 1.77 7.302 7.302 0 0 0-8.764-1.435 7.302 7.302 0 0 0-3.672 8.086A20.725 20.725 0 0 1 3.665 2.889a7.304 7.304 0 0 0 2.257 9.734 7.31 7.31 0 0 1-3.305-.91v.09a7.29 7.29 0 0 0 5.852 7.153 7.249 7.249 0 0 1-3.291.125 7.31 7.31 0 0 0 6.811 5.069 14.634 14.634 0 0 1-10.803 3.018 20.689 20.689 0 0 0 11.185 3.276z"
                style="fill:var(--color2, #fff)" />
        </symbol>
        <symbol id="icon-Star_five" viewBox="0 0 32 32">
            <path fill="#ffce22"
                d="M13.774 3.109C15.01 1 18.059 1 19.295 3.109l2.761 4.71a3.197 3.197 0 0 0 2.074 1.507l5.333 1.171c2.388.524 3.33 3.423 1.706 5.251l-3.626 4.082a3.2 3.2 0 0 0-.792 2.439l.534 5.433c.239 2.433-2.227 4.225-4.467 3.245l-5.002-2.187a3.203 3.203 0 0 0-2.564 0l-5.002 2.187c-2.24.979-4.706-.812-4.467-3.245l.534-5.433a3.204 3.204 0 0 0-.792-2.439l-3.626-4.082c-1.623-1.827-.681-4.727 1.706-5.251l5.333-1.171a3.2 3.2 0 0 0 2.074-1.507l2.761-4.71z"
                style="fill:var(--color4, #ffce22)" />
        </symbol>
    </defs>
</svg>