<svg aria-hidden="true" style="position: absolute; width: 0; height: 0; overflow: hidden;" version="1.1" xmlns="http://www.w3.org/2000/svg" xmlns:xlink="http://www.w3.org/1999/xlink">
<defs>
<symbol id="icon-Design" viewBox="0 0 32 32">
<path d="M16 5.461l1.49 9.049 9.048 1.49-9.048 1.49-1.49 9.049-1.49-9.049-9.048-1.49 9.048-1.49 1.49-9.049z"></path>
<path d="M16 31.617c-8.625 0-15.617-6.992-15.617-15.617s6.992-15.617 15.617-15.617c8.625 0 15.617 6.992 15.617 15.617s-6.992 15.617-15.617 15.617zM16 32c8.837 0 16-7.163 16-16s-7.163-16-16-16c-8.837 0-16 7.163-16 16s7.163 16 16 16z"></path>
</symbol>
</defs>
</svg>
