<svg aria-hidden="true" style="position: absolute; width: 0; height: 0; overflow: hidden;" version="1.1" xmlns="http://www.w3.org/2000/svg" xmlns:xlink="http://www.w3.org/1999/xlink">
<defs>
<symbol id="icon-right" viewBox="0 0 32 32">
<path fill="none" stroke="#fff" style="stroke: var(--color1, #fff)" stroke-linejoin="round" stroke-linecap="round" stroke-miterlimit="4" stroke-width="1.8824" d="M12 8l8 8-8 8"></path>
</symbol>
<symbol id="icon-left" viewBox="0 0 32 32">
<path fill="none" stroke="#fff" style="stroke: var(--color1, #fff)" stroke-linejoin="round" stroke-linecap="round" stroke-miterlimit="4" stroke-width="1.8824" d="M20 8l-8 8 8 8"></path>
</symbol>
<symbol id="icon-lin" viewBox="0 0 34 32">
<path fill="#fff" style="fill: var(--color1, #fff)" d="M30.164 0h-27.269c-1.306 0-2.362 1.031-2.362 2.306v27.381c0 1.275 1.056 2.312 2.362 2.312h27.269c1.306 0 2.369-1.037 2.369-2.306v-27.387c0-1.275-1.063-2.306-2.369-2.306zM10.027 27.269h-4.75v-15.275h4.75v15.275zM7.652 9.912c-1.525 0-2.756-1.231-2.756-2.75s1.231-2.75 2.756-2.75c1.519 0 2.75 1.231 2.75 2.75 0 1.512-1.231 2.75-2.75 2.75zM27.802 27.269h-4.744v-7.425c0-1.769-0.031-4.050-2.469-4.050-2.469 0-2.844 1.931-2.844 3.925v7.55h-4.737v-15.275h4.55v2.088h0.063c0.631-1.2 2.181-2.469 4.488-2.469 4.806 0 5.694 3.162 5.694 7.275v8.381z"></path>
</symbol>
<symbol id="icon-twit" viewBox="0 0 34 32">
<path fill="#fff" style="fill: var(--color1, #fff)" d="M10.6 29c12.072 0 18.677-10.004 18.677-18.677 0-0.281-0.006-0.569-0.019-0.85 1.285-0.929 2.394-2.080 3.274-3.399-1.197 0.532-2.467 0.88-3.768 1.031 1.37-0.821 2.396-2.111 2.887-3.631-1.289 0.764-2.698 1.302-4.168 1.593-0.99-1.052-2.299-1.749-3.725-1.982s-2.889 0.009-4.163 0.691c-1.274 0.681-2.288 1.764-2.885 3.079s-0.744 2.791-0.419 4.199c-2.609-0.131-5.162-0.809-7.493-1.99s-4.387-2.838-6.036-4.865c-0.838 1.445-1.095 3.155-0.717 4.782s1.36 3.050 2.748 3.979c-1.042-0.033-2.062-0.314-2.974-0.819v0.081c-0.001 1.516 0.523 2.986 1.484 4.16s2.297 1.978 3.784 2.278c-0.966 0.264-1.979 0.303-2.962 0.112 0.42 1.304 1.236 2.445 2.335 3.263s2.426 1.272 3.795 1.3c-2.325 1.826-5.198 2.817-8.154 2.812-0.524-0.001-1.048-0.033-1.569-0.096 3.004 1.927 6.498 2.951 10.067 2.949z"></path>
</symbol>
<symbol id="icon-fbook" viewBox="0 0 34 32">
<path fill="#fff" style="fill: var(--color1, #fff)" d="M32.533 16c0-8.837-7.163-16-16-16s-16 7.163-16 16c0 7.986 5.851 14.605 13.5 15.806v-11.181h-4.063v-4.625h4.063v-3.525c0-4.010 2.389-6.225 6.044-6.225 1.75 0 3.581 0.313 3.581 0.313v3.938h-2.017c-1.988 0-2.608 1.233-2.608 2.5v3h4.437l-0.709 4.625h-3.728v11.181c7.649-1.2 13.5-7.82 13.5-15.806z"></path>
</symbol>
<symbol id="icon-Shape" viewBox="0 0 32 32">
<path fill="#ffce22" style="fill: var(--color2, #ffce22)" d="M13.239 3.109c1.236-2.109 4.285-2.109 5.521 0l2.761 4.71c0.451 0.77 1.203 1.316 2.074 1.507l5.333 1.171c2.388 0.524 3.33 3.423 1.706 5.251l-3.626 4.082c-0.592 0.667-0.88 1.551-0.792 2.439l0.535 5.433c0.239 2.433-2.227 4.225-4.467 3.245l-5.002-2.187c-0.817-0.357-1.747-0.357-2.564 0l-5.002 2.187c-2.24 0.979-4.706-0.812-4.467-3.245l0.534-5.433c0.087-0.888-0.2-1.772-0.792-2.439l-3.626-4.082c-1.623-1.827-0.681-4.727 1.706-5.251l5.333-1.171c0.871-0.191 1.623-0.738 2.074-1.507l2.761-4.71z"></path>
</symbol>
</defs>
</svg>
