<svg aria-hidden="true" style="position: absolute; width: 0; height: 0; overflow: hidden;" version="1.1" xmlns="http://www.w3.org/2000/svg" xmlns:xlink="http://www.w3.org/1999/xlink">
<defs>
<symbol id="icon-29" viewBox="0 0 32 32">
<path fill="#474752" style="fill: var(--color1, #474752)" d="M30.231 16c0.612 0 1.206-0.082 1.769-0.236-0.448-0.095-0.913-0.144-1.389-0.144h-7.914c-1.307 0-2.527-0.374-3.558-1.022 0.225-1.319 0.847-2.583 1.865-3.602l5.058-5.058c0.433-0.433 0.794-0.911 1.084-1.418-0.384 0.25-0.748 0.543-1.084 0.88l-5.596 5.596c-0.924 0.924-2.052 1.522-3.238 1.793-0.773-1.092-1.228-2.426-1.228-3.866v-7.153c0-0.613-0.082-1.206-0.236-1.77-0.095 0.448-0.144 0.913-0.144 1.389v7.914c0 1.307-0.374 2.527-1.022 3.558-1.319-0.225-2.583-0.847-3.602-1.865l-5.058-5.058c-0.433-0.433-0.911-0.795-1.418-1.084 0.25 0.384 0.543 0.747 0.88 1.084l5.596 5.596c0.924 0.924 1.522 2.052 1.793 3.238-1.092 0.773-2.426 1.228-3.866 1.228h-7.153c-0.613 0-1.206 0.082-1.77 0.236 0.448 0.095 0.913 0.144 1.389 0.144h7.914c1.307 0 2.527 0.375 3.558 1.022-0.225 1.319-0.847 2.583-1.865 3.602l-5.058 5.058c-0.433 0.433-0.795 0.911-1.084 1.418 0.384-0.25 0.747-0.544 1.084-0.88l5.596-5.596c0.924-0.924 2.052-1.522 3.238-1.793 0.773 1.092 1.228 2.426 1.228 3.866v7.153c0 0.612 0.082 1.206 0.236 1.769 0.095-0.448 0.144-0.913 0.144-1.389v-7.914c0-1.307 0.375-2.527 1.022-3.558 1.319 0.225 2.583 0.847 3.602 1.865l5.058 5.058c0.433 0.433 0.911 0.794 1.418 1.084-0.25-0.384-0.544-0.748-0.88-1.084l-5.596-5.596c-0.924-0.924-1.522-2.052-1.793-3.238 1.092-0.773 2.426-1.228 3.866-1.228h7.153z"></path>
</symbol>
</defs>
</svg>
