<svg aria-hidden="true" style="position: absolute; width: 0; height: 0; overflow: hidden;" version="1.1" xmlns="http://www.w3.org/2000/svg" xmlns:xlink="http://www.w3.org/1999/xlink">
<defs>
<symbol id="icon-arrow-up" viewBox="0 0 32 32">
<path fill="#e3e3e3" style="fill: var(--color1, #e3e3e3)" d="M7.2 26.667l-1.867-1.867 15.467-15.467h-8.8v-2.667h13.333v13.333h-2.667v-8.8l-15.467 15.467z"></path>
</symbol>
<symbol id="icon-arrow-right" viewBox="0 0 32 32">
<path fill="#fff" style="fill: var(--color2, #fff)" d="M12.665 7.335c0.17-0.17 0.406-0.276 0.665-0.276s0.495 0.105 0.665 0.276l8.471 8.471c0.17 0.17 0.276 0.406 0.276 0.665s-0.105 0.495-0.276 0.665l-8.471 8.471c-0.171 0.177-0.411 0.287-0.677 0.287-0.52 0-0.941-0.421-0.941-0.941 0-0.266 0.11-0.506 0.287-0.677l0-0 7.18-8.276-7.18-7.14c-0.237-0.173-0.39-0.45-0.39-0.763s0.152-0.59 0.387-0.761l0.003-0.002z"></path>
</symbol>
<symbol id="icon-arrow-left" viewBox="0 0 32 32">
<path fill="#fff" style="fill: var(--color2, #fff)" d="M19.335 7.335c0.17 0.17 0.276 0.406 0.276 0.665s-0.105 0.495-0.276 0.665v0l-7.18 7.335 7.18 7.14c0.163 0.169 0.264 0.4 0.264 0.654 0 0.52-0.421 0.941-0.941 0.941-0.254 0-0.485-0.101-0.654-0.264l-8.47-8.47c-0.17-0.17-0.276-0.406-0.276-0.665s0.105-0.495 0.276-0.665l8.471-8.471c0.17-0.17 0.406-0.276 0.665-0.276s0.495 0.105 0.665 0.276v0z"></path>
</symbol>
</defs>
</svg>
